<svg width="72" height="19" viewBox="0 0 72 19" fill="none" xmlns="http://www.w3.org/2000/svg">
<path d="M0.14025 1.2H4.17225C5.48425 1.2 6.46825 1.552 7.12425 2.256C7.78025 2.96 8.10825 3.992 8.10825 5.352V13.848C8.10825 15.208 7.78025 16.24 7.12425 16.944C6.46825 17.648 5.48425 18 4.17225 18H0.14025V1.2ZM4.12425 15.6C4.55625 15.6 4.88425 15.472 5.10825 15.216C5.34825 14.96 5.46825 14.544 5.46825 13.968V5.232C5.46825 4.656 5.34825 4.24 5.10825 3.984C4.88425 3.728 4.55625 3.6 4.12425 3.6H2.78025V15.6H4.12425ZM9.89025 1.2H17.0903V3.6H12.5303V8.04H16.1543V10.44H12.5303V15.6H17.0903V18H9.89025V1.2ZM17.913 1.2H20.577L22.305 14.232H22.353L24.081 1.2H26.505L23.961 18H20.457L17.913 1.2ZM31.4462 18.24C30.1822 18.24 29.2142 17.88 28.5422 17.16C27.8862 16.44 27.5582 15.424 27.5582 14.112V5.088C27.5582 3.776 27.8862 2.76 28.5422 2.04C29.2142 1.32 30.1822 0.959999 31.4462 0.959999C32.7102 0.959999 33.6702 1.32 34.3262 2.04C34.9982 2.76 35.3342 3.776 35.3342 5.088V6.864H32.8382V4.92C32.8382 3.88 32.3982 3.36 31.5182 3.36C30.6382 3.36 30.1982 3.88 30.1982 4.92V14.304C30.1982 15.328 30.6382 15.84 31.5182 15.84C32.3982 15.84 32.8382 15.328 32.8382 14.304V11.736H35.3342V14.112C35.3342 15.424 34.9982 16.44 34.3262 17.16C33.6702 17.88 32.7102 18.24 31.4462 18.24ZM36.9137 1.2H39.5537V15.6H43.8977V18H36.9137V1.2ZM47.2974 1.2H50.8734L53.6094 18H50.9694L50.4894 14.664V14.712H47.4894L47.0094 18H44.5614L47.2974 1.2ZM50.1774 12.432L49.0014 4.128H48.9534L47.8014 12.432H50.1774ZM58.2519 18.24C56.9719 18.24 56.0039 17.88 55.3479 17.16C54.6919 16.424 54.3639 15.376 54.3639 14.016V13.056H56.8599V14.208C56.8599 15.296 57.3159 15.84 58.2279 15.84C58.6759 15.84 59.0119 15.712 59.2359 15.456C59.4759 15.184 59.5959 14.752 59.5959 14.16C59.5959 13.456 59.4359 12.84 59.1159 12.312C58.7959 11.768 58.2039 11.12 57.3399 10.368C56.2519 9.408 55.4919 8.544 55.0599 7.776C54.6279 6.992 54.4119 6.112 54.4119 5.136C54.4119 3.808 54.7479 2.784 55.4199 2.064C56.0919 1.328 57.0679 0.959999 58.3479 0.959999C59.6119 0.959999 60.5639 1.328 61.2039 2.064C61.8599 2.784 62.1879 3.824 62.1879 5.184V5.88H59.6919V5.016C59.6919 4.44 59.5799 4.024 59.3559 3.768C59.1319 3.496 58.8039 3.36 58.3719 3.36C57.4919 3.36 57.0519 3.896 57.0519 4.968C57.0519 5.576 57.2119 6.144 57.5319 6.672C57.8679 7.2 58.4679 7.84 59.3319 8.592C60.4359 9.552 61.1959 10.424 61.6119 11.208C62.0279 11.992 62.2359 12.912 62.2359 13.968C62.2359 15.344 61.8919 16.4 61.2039 17.136C60.5319 17.872 59.5479 18.24 58.2519 18.24ZM63.7496 1.2H66.3896V8.04H69.2216V1.2H71.8616V18H69.2216V10.44H66.3896V18H63.7496V1.2Z" fill="url(#paint0_linear_2_3497)"/>
<defs>
<linearGradient id="paint0_linear_2_3497" x1="33.8069" y1="3.32852" x2="35.4093" y2="28.4672" gradientUnits="userSpaceOnUse">
<stop offset="0.0001" stop-color="#F88210"/>
<stop offset="0.939603" stop-color="#B0009F"/>
</linearGradient>
</defs>
</svg>
