<svg width="77" height="19" viewBox="0 0 77 19" fill="none" xmlns="http://www.w3.org/2000/svg">
<path d="M4.57537 18.24C3.29537 18.24 2.32737 17.88 1.67137 17.16C1.01537 16.424 0.687374 15.376 0.687374 14.016V13.056H3.18337V14.208C3.18337 15.296 3.63937 15.84 4.55137 15.84C4.99937 15.84 5.33537 15.712 5.55937 15.456C5.79937 15.184 5.91937 14.752 5.91937 14.16C5.91937 13.456 5.75937 12.84 5.43937 12.312C5.11937 11.768 4.52737 11.12 3.66337 10.368C2.57537 9.408 1.81537 8.544 1.38337 7.776C0.951374 6.992 0.735374 6.112 0.735374 5.136C0.735374 3.808 1.07137 2.784 1.74337 2.064C2.41537 1.328 3.39137 0.959999 4.67137 0.959999C5.93537 0.959999 6.88737 1.328 7.52737 2.064C8.18337 2.784 8.51137 3.824 8.51137 5.184V5.88H6.01537V5.016C6.01537 4.44 5.90337 4.024 5.67937 3.768C5.45537 3.496 5.12737 3.36 4.69537 3.36C3.81537 3.36 3.37537 3.896 3.37537 4.968C3.37537 5.576 3.53537 6.144 3.85537 6.672C4.19137 7.2 4.79137 7.84 5.65537 8.592C6.75937 9.552 7.51937 10.424 7.93537 11.208C8.35137 11.992 8.55937 12.912 8.55937 13.968C8.55937 15.344 8.21537 16.4 7.52737 17.136C6.85537 17.872 5.87137 18.24 4.57537 18.24ZM11.2731 1.2H15.1611C16.4731 1.2 17.4571 1.552 18.1131 2.256C18.7691 2.96 19.0971 3.992 19.0971 5.352V7.008C19.0971 8.368 18.7691 9.4 18.1131 10.104C17.4571 10.808 16.4731 11.16 15.1611 11.16H13.9131V18H11.2731V1.2ZM15.1611 8.76C15.5931 8.76 15.9131 8.64 16.1211 8.4C16.3451 8.16 16.4571 7.752 16.4571 7.176V5.184C16.4571 4.608 16.3451 4.2 16.1211 3.96C15.9131 3.72 15.5931 3.6 15.1611 3.6H13.9131V8.76H15.1611ZM25.5469 18.24C24.2509 18.24 23.2589 17.872 22.5709 17.136C21.8829 16.4 21.5389 15.36 21.5389 14.016V5.184C21.5389 3.84 21.8829 2.8 22.5709 2.064C23.2589 1.328 24.2509 0.959999 25.5469 0.959999C26.8429 0.959999 27.8349 1.328 28.5229 2.064C29.2109 2.8 29.5549 3.84 29.5549 5.184V14.016C29.5549 15.36 29.2109 16.4 28.5229 17.136C27.8349 17.872 26.8429 18.24 25.5469 18.24ZM25.5469 15.84C26.4589 15.84 26.9149 15.288 26.9149 14.184V5.016C26.9149 3.912 26.4589 3.36 25.5469 3.36C24.6349 3.36 24.1789 3.912 24.1789 5.016V14.184C24.1789 15.288 24.6349 15.84 25.5469 15.84ZM36.2602 18.24C34.9962 18.24 34.0282 17.88 33.3562 17.16C32.7002 16.44 32.3722 15.424 32.3722 14.112V5.088C32.3722 3.776 32.7002 2.76 33.3562 2.04C34.0282 1.32 34.9962 0.959999 36.2602 0.959999C37.5242 0.959999 38.4842 1.32 39.1402 2.04C39.8122 2.76 40.1482 3.776 40.1482 5.088V6.864H37.6522V4.92C37.6522 3.88 37.2122 3.36 36.3322 3.36C35.4522 3.36 35.0122 3.88 35.0122 4.92V14.304C35.0122 15.328 35.4522 15.84 36.3322 15.84C37.2122 15.84 37.6522 15.328 37.6522 14.304V11.736H40.1482V14.112C40.1482 15.424 39.8122 16.44 39.1402 17.16C38.4842 17.88 37.5242 18.24 36.2602 18.24ZM46.6946 18.24C45.4306 18.24 44.4626 17.88 43.7906 17.16C43.1346 16.44 42.8066 15.424 42.8066 14.112V5.088C42.8066 3.776 43.1346 2.76 43.7906 2.04C44.4626 1.32 45.4306 0.959999 46.6946 0.959999C47.9586 0.959999 48.9186 1.32 49.5746 2.04C50.2466 2.76 50.5826 3.776 50.5826 5.088V6.864H48.0866V4.92C48.0866 3.88 47.6466 3.36 46.7666 3.36C45.8866 3.36 45.4466 3.88 45.4466 4.92V14.304C45.4466 15.328 45.8866 15.84 46.7666 15.84C47.6466 15.84 48.0866 15.328 48.0866 14.304V11.736H50.5826V14.112C50.5826 15.424 50.2466 16.44 49.5746 17.16C48.9186 17.88 47.9586 18.24 46.6946 18.24ZM58.3579 16.176C58.3579 14.976 58.5499 13.952 58.9339 13.104C59.3179 12.24 60.0059 11.288 60.9979 10.248C61.9739 9.208 62.6459 8.32 63.0139 7.584C63.3979 6.848 63.5899 6.08 63.5899 5.28C63.5899 4.56 63.4699 4.064 63.2299 3.792C63.0059 3.504 62.6699 3.36 62.2219 3.36C61.3099 3.36 60.8539 3.912 60.8539 5.016V6.816H58.3579V5.184C58.3579 3.824 58.6939 2.784 59.3659 2.064C60.0379 1.328 61.0139 0.959999 62.2939 0.959999C63.5739 0.959999 64.5499 1.328 65.2219 2.064C65.8939 2.784 66.2299 3.824 66.2299 5.184C66.2299 6.208 65.9819 7.208 65.4859 8.184C65.0059 9.16 64.1659 10.28 62.9659 11.544C62.1819 12.376 61.6539 13.056 61.3819 13.584C61.1099 14.096 60.9739 14.648 60.9739 15.24V15.6H65.9899V18H58.3579V16.176ZM72.9592 18.24C71.6632 18.24 70.6792 17.88 70.0072 17.16C69.3512 16.44 69.0232 15.408 69.0232 14.064V12.696H71.5192V14.184C71.5192 15.288 71.9752 15.84 72.8872 15.84C73.3352 15.84 73.6712 15.704 73.8952 15.432C74.1352 15.144 74.2552 14.648 74.2552 13.944V12.576C74.2552 11.808 74.1192 11.264 73.8472 10.944C73.5752 10.608 73.1352 10.44 72.5272 10.44H71.6392V8.04H72.5992C73.1272 8.04 73.5192 7.904 73.7752 7.632C74.0472 7.36 74.1832 6.904 74.1832 6.264V5.04C74.1832 4.464 74.0632 4.04 73.8232 3.768C73.5832 3.496 73.2632 3.36 72.8632 3.36C72.0152 3.36 71.5912 3.88 71.5912 4.92V6.024H69.0952V5.136C69.0952 3.792 69.4232 2.76 70.0792 2.04C70.7512 1.32 71.7112 0.959999 72.9592 0.959999C74.2232 0.959999 75.1832 1.32 75.8392 2.04C76.4952 2.744 76.8232 3.768 76.8232 5.112V5.712C76.8232 6.624 76.6712 7.36 76.3672 7.92C76.0632 8.464 75.5912 8.856 74.9512 9.096V9.144C75.6392 9.4 76.1352 9.816 76.4392 10.392C76.7432 10.968 76.8952 11.704 76.8952 12.6V14.088C76.8952 15.432 76.5592 16.464 75.8872 17.184C75.2312 17.888 74.2552 18.24 72.9592 18.24Z" fill="#965AA1"/>
</svg>
